<svg id="visual" viewBox="0 0 120 20" width="120" height="20" xmlns="http://www.w3.org/2000/svg" xmlns:xlink="http://www.w3.org/1999/xlink" version="1.1"><path d="M0 15L1.5 15.3C3 15.7 6 16.3 8.8 14.7C11.7 13 14.3 9 17.2 8.8C20 8.7 23 12.3 25.8 12.2C28.7 12 31.3 8 34.2 6.7C37 5.3 40 6.7 42.8 7.8C45.7 9 48.3 10 51.2 10.2C54 10.3 57 9.7 60 8.5C63 7.3 66 5.7 68.8 5.8C71.7 6 74.3 8 77.2 8.2C80 8.3 83 6.7 85.8 7.5C88.7 8.3 91.3 11.7 94.2 13.7C97 15.7 100 16.3 102.8 14.5C105.7 12.7 108.3 8.3 111.2 7.7C114 7 117 10 118.5 11.5L120 13L120 21L118.5 21C117 21 114 21 111.2 21C108.3 21 105.7 21 102.8 21C100 21 97 21 94.2 21C91.3 21 88.7 21 85.8 21C83 21 80 21 77.2 21C74.3 21 71.7 21 68.8 21C66 21 63 21 60 21C57 21 54 21 51.2 21C48.3 21 45.7 21 42.8 21C40 21 37 21 34.2 21C31.3 21 28.7 21 25.8 21C23 21 20 21 17.2 21C14.3 21 11.7 21 8.8 21C6 21 3 21 1.5 21L0 21Z" fill="#0066FF" stroke-linecap="round" stroke-linejoin="miter"></path></svg>