<svg id="visual" viewBox="0 0 900 600" width="900" height="600" xmlns="http://www.w3.org/2000/svg" xmlns:xlink="http://www.w3.org/1999/xlink" version="1.1"><g stroke-width="1" stroke-linejoin="bevel"><path d="M521 339L529 403L572 392Z" fill="#24343d" stroke="#24343d"></path><path d="M572 392L606 329L521 339Z" fill="#232d37" stroke="#232d37"></path><path d="M588 498L663 420L572 392Z" fill="#232d37" stroke="#232d37"></path><path d="M572 392L663 420L606 329Z" fill="#263a43" stroke="#263a43"></path><path d="M529 403L588 498L572 392Z" fill="#24343d" stroke="#24343d"></path><path d="M529 403L530 528L588 498Z" fill="#130f14" stroke="#130f14"></path><path d="M389 476L530 528L529 403Z" fill="#1c1b22" stroke="#1c1b22"></path><path d="M521 339L395 432L529 403Z" fill="#2b484c" stroke="#2b484c"></path><path d="M596 202L499 201L521 339Z" fill="#24343d" stroke="#24343d"></path><path d="M521 339L361 334L395 432Z" fill="#2b484c" stroke="#2b484c"></path><path d="M704 265L596 202L606 329Z" fill="#212730" stroke="#212730"></path><path d="M606 329L596 202L521 339Z" fill="#284148" stroke="#284148"></path><path d="M499 201L361 334L521 339Z" fill="#1c1b22" stroke="#1c1b22"></path><path d="M290 477L389 476L395 432Z" fill="#1f2129" stroke="#1f2129"></path><path d="M395 432L389 476L529 403Z" fill="#1f2129" stroke="#1f2129"></path><path d="M663 420L704 265L606 329Z" fill="#18151b" stroke="#18151b"></path><path d="M499 201L337 271L361 334Z" fill="#130f14" stroke="#130f14"></path><path d="M361 334L275 417L395 432Z" fill="#263a43" stroke="#263a43"></path><path d="M704 265L669 176L596 202Z" fill="#2b484c" stroke="#2b484c"></path><path d="M596 202L624 133L499 201Z" fill="#24343d" stroke="#24343d"></path><path d="M731 534L774 366L663 420Z" fill="#263a43" stroke="#263a43"></path><path d="M663 420L774 366L704 265Z" fill="#263a43" stroke="#263a43"></path><path d="M704 265L833 164L669 176Z" fill="#284148" stroke="#284148"></path><path d="M530 528L621 600L588 498Z" fill="#18151b" stroke="#18151b"></path><path d="M588 498L731 534L663 420Z" fill="#1f2129" stroke="#1f2129"></path><path d="M370 600L524 600L530 528Z" fill="#2b484c" stroke="#2b484c"></path><path d="M524 600L621 600L530 528Z" fill="#18151b" stroke="#18151b"></path><path d="M774 366L785 311L704 265Z" fill="#130f14" stroke="#130f14"></path><path d="M669 176L624 133L596 202Z" fill="#212730" stroke="#212730"></path><path d="M499 201L381 178L337 271Z" fill="#232d37" stroke="#232d37"></path><path d="M621 600L731 534L588 498Z" fill="#284148" stroke="#284148"></path><path d="M370 125L381 178L499 201Z" fill="#212730" stroke="#212730"></path><path d="M231 383L275 417L361 334Z" fill="#1f2129" stroke="#1f2129"></path><path d="M389 476L370 600L530 528Z" fill="#2b484c" stroke="#2b484c"></path><path d="M275 417L290 477L395 432Z" fill="#130f14" stroke="#130f14"></path><path d="M621 600L695 600L731 534Z" fill="#212730" stroke="#212730"></path><path d="M290 477L370 600L389 476Z" fill="#18151b" stroke="#18151b"></path><path d="M669 176L660 102L624 133Z" fill="#2f4f4f" stroke="#2f4f4f"></path><path d="M535 67L370 125L499 201Z" fill="#212730" stroke="#212730"></path><path d="M800 95L660 102L669 176Z" fill="#263a43" stroke="#263a43"></path><path d="M535 67L499 201L624 133Z" fill="#2f4f4f" stroke="#2f4f4f"></path><path d="M381 178L271 188L337 271Z" fill="#212730" stroke="#212730"></path><path d="M337 271L231 383L361 334Z" fill="#284148" stroke="#284148"></path><path d="M660 102L535 67L624 133Z" fill="#1c1b22" stroke="#1c1b22"></path><path d="M275 417L204 509L290 477Z" fill="#2b484c" stroke="#2b484c"></path><path d="M195 319L231 383L337 271Z" fill="#284148" stroke="#284148"></path><path d="M301 108L271 188L381 178Z" fill="#263a43" stroke="#263a43"></path><path d="M821 600L833 520L731 534Z" fill="#284148" stroke="#284148"></path><path d="M731 534L833 520L774 366Z" fill="#1f2129" stroke="#1f2129"></path><path d="M774 366L900 412L785 311Z" fill="#212730" stroke="#212730"></path><path d="M271 188L228 237L337 271Z" fill="#212730" stroke="#212730"></path><path d="M228 237L195 319L337 271Z" fill="#130f14" stroke="#130f14"></path><path d="M900 228L833 164L785 311Z" fill="#284148" stroke="#284148"></path><path d="M785 311L833 164L704 265Z" fill="#284148" stroke="#284148"></path><path d="M292 0L301 108L370 125Z" fill="#284148" stroke="#284148"></path><path d="M370 125L301 108L381 178Z" fill="#263a43" stroke="#263a43"></path><path d="M271 188L219 127L228 237Z" fill="#2f4f4f" stroke="#2f4f4f"></path><path d="M833 520L900 412L774 366Z" fill="#284148" stroke="#284148"></path><path d="M695 600L821 600L731 534Z" fill="#2f4f4f" stroke="#2f4f4f"></path><path d="M833 520L900 496L900 412Z" fill="#24343d" stroke="#24343d"></path><path d="M290 477L261 600L370 600Z" fill="#263a43" stroke="#263a43"></path><path d="M204 509L261 600L290 477Z" fill="#2f4f4f" stroke="#2f4f4f"></path><path d="M204 509L275 417L231 383Z" fill="#212730" stroke="#212730"></path><path d="M109 387L204 509L231 383Z" fill="#2f4f4f" stroke="#2f4f4f"></path><path d="M900 412L900 280L785 311Z" fill="#212730" stroke="#212730"></path><path d="M535 67L437 0L370 125Z" fill="#263a43" stroke="#263a43"></path><path d="M609 0L489 0L535 67Z" fill="#1c1b22" stroke="#1c1b22"></path><path d="M609 0L535 67L660 102Z" fill="#2b484c" stroke="#2b484c"></path><path d="M718 0L609 0L660 102Z" fill="#1f2129" stroke="#1f2129"></path><path d="M797 0L800 95L900 89Z" fill="#1c1b22" stroke="#1c1b22"></path><path d="M833 164L800 95L669 176Z" fill="#263a43" stroke="#263a43"></path><path d="M900 600L900 496L833 520Z" fill="#130f14" stroke="#130f14"></path><path d="M900 280L900 228L785 311Z" fill="#2b484c" stroke="#2b484c"></path><path d="M489 0L437 0L535 67Z" fill="#2f4f4f" stroke="#2f4f4f"></path><path d="M101 333L109 387L195 319Z" fill="#2b484c" stroke="#2b484c"></path><path d="M301 108L219 127L271 188Z" fill="#130f14" stroke="#130f14"></path><path d="M206 0L219 127L301 108Z" fill="#263a43" stroke="#263a43"></path><path d="M800 95L718 0L660 102Z" fill="#18151b" stroke="#18151b"></path><path d="M99 600L197 600L204 509Z" fill="#1c1b22" stroke="#1c1b22"></path><path d="M204 509L197 600L261 600Z" fill="#2f4f4f" stroke="#2f4f4f"></path><path d="M821 600L900 600L833 520Z" fill="#2f4f4f" stroke="#2f4f4f"></path><path d="M195 319L109 387L231 383Z" fill="#18151b" stroke="#18151b"></path><path d="M101 333L195 319L86 215Z" fill="#24343d" stroke="#24343d"></path><path d="M86 215L195 319L228 237Z" fill="#1f2129" stroke="#1f2129"></path><path d="M437 0L292 0L370 125Z" fill="#1c1b22" stroke="#1c1b22"></path><path d="M900 89L800 95L833 164Z" fill="#18151b" stroke="#18151b"></path><path d="M800 95L797 0L718 0Z" fill="#130f14" stroke="#130f14"></path><path d="M900 228L900 89L833 164Z" fill="#1f2129" stroke="#1f2129"></path><path d="M77 132L86 215L219 127Z" fill="#232d37" stroke="#232d37"></path><path d="M219 127L86 215L228 237Z" fill="#284148" stroke="#284148"></path><path d="M0 405L77 521L109 387Z" fill="#263a43" stroke="#263a43"></path><path d="M109 387L77 521L204 509Z" fill="#2b484c" stroke="#2b484c"></path><path d="M0 405L109 387L101 333Z" fill="#232d37" stroke="#232d37"></path><path d="M292 0L206 0L301 108Z" fill="#24343d" stroke="#24343d"></path><path d="M77 521L99 600L204 509Z" fill="#24343d" stroke="#24343d"></path><path d="M900 89L900 0L797 0Z" fill="#1c1b22" stroke="#1c1b22"></path><path d="M113 0L77 132L219 127Z" fill="#1c1b22" stroke="#1c1b22"></path><path d="M0 312L0 405L101 333Z" fill="#1f2129" stroke="#1f2129"></path><path d="M0 312L101 333L86 215Z" fill="#2b484c" stroke="#2b484c"></path><path d="M77 521L0 600L99 600Z" fill="#1f2129" stroke="#1f2129"></path><path d="M0 195L0 312L86 215Z" fill="#130f14" stroke="#130f14"></path><path d="M0 405L0 522L77 521Z" fill="#232d37" stroke="#232d37"></path><path d="M206 0L113 0L219 127Z" fill="#284148" stroke="#284148"></path><path d="M77 132L0 195L86 215Z" fill="#263a43" stroke="#263a43"></path><path d="M0 98L0 195L77 132Z" fill="#1c1b22" stroke="#1c1b22"></path><path d="M0 522L0 600L77 521Z" fill="#232d37" stroke="#232d37"></path><path d="M113 0L0 98L77 132Z" fill="#1c1b22" stroke="#1c1b22"></path><path d="M113 0L0 0L0 98Z" fill="#232d37" stroke="#232d37"></path></g></svg>